<mxfile host="app.diagrams.net" agent="Mozilla/5.0 (Linux; Android 12; HarmonyOS; WEB-W10; HMSCore 6.15.2.329) AppleWebKit/537.36 (KHTML, like Gecko) Chrome/114.0.5735.196 HuaweiBrowser/16.0.4.302 Safari/537.36" version="27.0.6">
  <diagram name="第 1 页" id="R70YvTWjB-rt24s_vJB5">
    <mxGraphModel dx="946" dy="737" grid="1" gridSize="10" guides="1" tooltips="1" connect="1" arrows="1" fold="1" page="1" pageScale="1" pageWidth="827" pageHeight="1169" math="0" shadow="0">
      <root>
        <mxCell id="0" />
        <mxCell id="1" parent="0" />
        <mxCell id="JVPWQOy8-UFzB-1pJNr3-1" value="" style="rounded=0;whiteSpace=wrap;html=1;" vertex="1" parent="1">
          <mxGeometry x="294" y="210" width="120" height="60" as="geometry" />
        </mxCell>
      </root>
    </mxGraphModel>
  </diagram>
</mxfile>
